<svg width="35" height="37" viewBox="0 0 35 37" fill="none" xmlns="http://www.w3.org/2000/svg">
<g filter="url(#filter0_d_2103_6625)">
<path d="M27.7823 6.56577C27.0721 5.90109 24.2022 3.78789 17.8096 3.75918C17.8096 3.75918 10.2712 3.29808 6.59632 6.71715C4.55068 8.79251 3.83106 11.8292 3.75515 15.5941C3.67924 19.359 3.58103 26.4146 10.2862 28.3277H10.2926L10.2883 31.2469C10.2883 31.2469 10.2455 32.4288 11.0127 32.6698C11.9407 32.9621 12.4854 32.0639 13.3714 31.0956C13.8577 30.564 14.5293 29.7832 15.0354 29.1864C19.6211 29.5779 23.148 28.6831 23.5486 28.5508C24.4745 28.2464 29.7138 27.5656 30.566 20.5104C31.4455 13.2386 30.1405 8.63895 27.7823 6.56577Z" fill="white"/>
<path d="M26.2918 8.03465C25.6914 7.48133 23.0998 5.82966 17.6924 5.80573C17.6924 5.80573 11.2891 5.379 8.18078 8.23475C6.45077 9.96733 5.86796 12.5438 5.80406 15.688C5.74016 18.8321 5.40908 24.8385 11.079 26.4362C11.079 26.4362 11.0567 30.8954 11.0541 31.2873C11.0541 31.5614 11.097 31.7488 11.2514 31.7876C11.3625 31.815 11.5289 31.7567 11.6704 31.6136C12.577 30.6901 15.4795 27.1383 15.4795 27.1383C19.3739 27.3963 22.4724 26.6163 22.8056 26.5058C23.5913 26.2496 27.8408 25.8794 28.56 19.987C29.3032 13.9132 28.2869 9.76723 26.2918 8.03465Z" fill="#7360F2"/>
<path d="M20.4409 15.4296C20.3706 13.9915 19.6504 13.2362 18.2804 13.1637" stroke="white" stroke-width="0.723052" stroke-linecap="round" stroke-linejoin="round"/>
<path d="M22.2954 16.0603C22.324 14.7205 21.9328 13.6011 21.1216 12.7021C20.3068 11.7999 19.1789 11.3032 17.7315 11.1957" stroke="white" stroke-width="0.723052" stroke-linecap="round" stroke-linejoin="round"/>
<path d="M24.195 16.8137C24.1775 14.4888 23.4926 12.6578 22.1403 11.3206C20.788 9.98342 19.1062 9.30773 17.0948 9.29352" stroke="white" stroke-width="0.723052" stroke-linecap="round" stroke-linejoin="round"/>
<path d="M18.351 20.3411C18.351 20.3411 18.8592 20.3846 19.1328 20.0427L19.6663 19.3619C19.9236 19.0244 20.5446 18.809 21.1527 19.1527C21.6084 19.4163 22.0509 19.7029 22.4783 20.0114C22.8819 20.3124 23.7083 21.0119 23.7109 21.0119C24.1045 21.349 24.1955 21.844 23.9274 22.366C23.9274 22.369 23.9253 22.3743 23.9253 22.3769C23.6301 22.896 23.2553 23.3641 22.815 23.7636C22.8098 23.7663 22.8098 23.7689 22.8051 23.7715C22.4226 24.0957 22.0468 24.28 21.6777 24.3244C21.6233 24.334 21.5681 24.3375 21.513 24.3348C21.3502 24.3364 21.1883 24.3111 21.0335 24.26L21.0215 24.2421C20.4528 24.0794 19.5033 23.6723 17.9222 22.7875C17.0071 22.2815 16.136 21.6979 15.3181 21.0427C14.9082 20.7146 14.5171 20.3628 14.1469 19.9892L14.1075 19.9492L14.068 19.9092L14.0286 19.8691C14.0153 19.8561 14.0024 19.8426 13.9891 19.8291C13.6208 19.4536 13.274 19.057 12.9504 18.6411C12.3046 17.8116 11.7292 16.9282 11.2303 16.0003C10.358 14.396 9.95658 13.4338 9.79618 12.8561L9.7786 12.844C9.72832 12.687 9.70355 12.5227 9.70526 12.3576C9.70226 12.3018 9.70557 12.2457 9.71513 12.1906C9.76116 11.8168 9.94314 11.4353 10.2611 11.0461C10.2636 11.0413 10.2662 11.0413 10.2688 11.0361C10.6626 10.5895 11.1241 10.2095 11.636 9.91035C11.6385 9.91035 11.6437 9.90774 11.6467 9.90774C12.1613 9.63587 12.6494 9.72809 12.9813 10.1252C12.9839 10.1279 13.6722 10.9661 13.9677 11.3754C14.2718 11.8094 14.5544 12.2586 14.8142 12.7213C15.153 13.3377 14.9407 13.9689 14.608 14.229L13.9368 14.7701C13.598 15.0476 13.6426 15.5631 13.6426 15.5631C13.6426 15.5631 14.6367 19.3793 18.351 20.3411Z" fill="white"/>
</g>
<defs>
<filter id="filter0_d_2103_6625" x="-5.24521e-06" y="-5.24521e-06" width="34.58" height="36.4643" filterUnits="userSpaceOnUse" color-interpolation-filters="sRGB">
<feFlood flood-opacity="0" result="BackgroundImageFix"/>
<feColorMatrix in="SourceAlpha" type="matrix" values="0 0 0 0 0 0 0 0 0 0 0 0 0 0 0 0 0 0 127 0" result="hardAlpha"/>
<feOffset/>
<feGaussianBlur stdDeviation="1.86919"/>
<feComposite in2="hardAlpha" operator="out"/>
<feColorMatrix type="matrix" values="0 0 0 0 0 0 0 0 0 0 0 0 0 0 0 0 0 0 0.15 0"/>
<feBlend mode="normal" in2="BackgroundImageFix" result="effect1_dropShadow_2103_6625"/>
<feBlend mode="normal" in="SourceGraphic" in2="effect1_dropShadow_2103_6625" result="shape"/>
</filter>
</defs>
</svg>
