<svg width="30" height="30" viewBox="0 0 30 30" fill="none" xmlns="http://www.w3.org/2000/svg">
<path d="M14.7458 20.6942L12.9762 19.7927C12.9762 19.7927 10.4695 18.4941 8.82778 17.4511C7.69727 16.7374 6.88136 16.1731 6.88136 14.5216V12.1377L14.7458 16.414L29.4817 8.35299H29.5014V12.646V14.7458C29.5014 18.6579 27.9472 22.4097 25.181 25.176C22.4147 27.9423 18.6628 29.4964 14.7507 29.4964C10.8386 29.4964 7.0867 27.9423 4.32041 25.176C1.55412 22.4097 0 18.6579 0 14.7458V4.29299V0H0.0196802L14.7458 8.06103L29.4817 0H29.5014V2.37015C29.5645 2.92936 29.4492 3.49422 29.172 3.98398C28.8948 4.47375 28.4698 4.86333 27.9579 5.09712C24.4288 7.06322 16.5251 11.4417 16.5251 11.4417L14.7458 12.3432L12.9762 11.4427L3.9322 6.45961V14.7458C3.92347 17.6137 5.05436 20.3676 7.07612 22.4017C9.09788 24.4358 11.8449 25.5835 14.7129 25.5923C17.5808 25.601 20.3347 24.4701 22.3688 22.4483C24.403 20.4266 25.5506 17.6796 25.5593 14.8116L16.5251 19.7918L14.7458 20.6942Z" fill="#7A4CD9"/>
</svg>
