<svg width="17" height="17" viewBox="0 0 17 17" fill="none" xmlns="http://www.w3.org/2000/svg">
<g clip-path="url(#clip0_65_5773)">
<g opacity="0.5" clip-path="url(#clip1_65_5773)">
<path opacity="0.5" fill-rule="evenodd" clip-rule="evenodd" d="M16.709 16.719C16.5216 16.9059 16.2677 17.0108 16.003 17.0108C15.7383 17.0108 15.4845 16.9059 15.297 16.719L12.041 13.432C10.697 14.4509 9.04788 14.9854 7.36168 14.9486C5.67547 14.9117 4.05129 14.3057 2.75309 13.2289C1.45488 12.1522 0.558966 10.6681 0.210934 9.01781C-0.137099 7.3675 0.0832111 5.648 0.83606 4.13874C1.58891 2.62948 2.83004 1.41918 4.35776 0.704531C5.88548 -0.0101153 7.60999 -0.187103 9.25102 0.202332C10.8921 0.591767 12.3532 1.52473 13.3969 2.84961C14.4406 4.17449 15.0056 5.8134 15 7.5C14.9948 9.13539 14.4503 10.7234 13.451 12.018L16.709 15.307C16.8959 15.4944 17.0008 15.7483 17.0008 16.013C17.0008 16.2777 16.8959 16.5315 16.709 16.719ZM7.50002 2C6.41222 2 5.34885 2.32257 4.44438 2.92691C3.53991 3.53126 2.83496 4.39024 2.41868 5.39524C2.0024 6.40023 1.89348 7.5061 2.1057 8.57299C2.31792 9.63989 2.84174 10.6199 3.61093 11.3891C4.38012 12.1583 5.36013 12.6821 6.42702 12.8943C7.49392 13.1065 8.59978 12.9976 9.60478 12.5813C10.6098 12.1651 11.4688 11.4601 12.0731 10.5556C12.6774 9.65116 13 8.58779 13 7.5C13 6.04131 12.4206 4.64236 11.3891 3.61091C10.3577 2.57946 8.95871 2 7.50002 2Z" fill="#333333"/>
</g>
</g>
<defs>
<clipPath id="clip0_65_5773">
<rect width="17" height="17" fill="white"/>
</clipPath>
<clipPath id="clip1_65_5773">
<rect width="17" height="17" fill="white"/>
</clipPath>
</defs>
</svg>
